<svg id="Layer_1" data-name="Layer 1" xmlns="http://www.w3.org/2000/svg" viewBox="0 0 92 92"><defs><style>.cls-1{opacity:0.2;}.cls-2{fill:#fff;}.cls-3{fill:none;stroke:#e23333;stroke-width:2px;}.cls-4{fill:#e23333;}</style></defs><title>icon</title><g id="Rectangle_73" data-name="Rectangle 73" class="cls-1"><path class="cls-2" d="M46,91h0A45,45,0,0,1,1,46H1A45,45,0,0,1,46,1h0A45,45,0,0,1,91,46h0A45,45,0,0,1,46,91Z"/><path class="cls-3" d="M46,90h0A44,44,0,0,1,2,46H2A44,44,0,0,1,46,2h0A44,44,0,0,1,90,46h0A44,44,0,0,1,46,90Z"/></g><g id="Group_65" data-name="Group 65"><g id="Group_64" data-name="Group 64"><g id="Group_63" data-name="Group 63"><path id="Path_86" data-name="Path 86" class="cls-4" d="M59.75,58.91a5.49,5.49,0,0,0-4.34-3.74l-5.4-1v-.39a8.48,8.48,0,0,0,2.44-2.1h1.64a2.48,2.48,0,0,0,2.44-2.44V39.53a10.53,10.53,0,0,0-21.06,0v5.65A3.25,3.25,0,0,0,38,48.33a8,8,0,0,0,3.88,5.39v.39l-5.39,1a5.77,5.77,0,0,0-4.35,3.75l-.32,1-2.77-2.76A.76.76,0,0,1,29,56.07l.05,0,3.23-3.16-6.06-6-3.61,3.61a5.69,5.69,0,0,0-1.65,4,5.78,5.78,0,0,0,1.65,4L33.57,69.36a5.71,5.71,0,0,0,4,1.64,5.45,5.45,0,0,0,4-1.64l3.94-3.62L44.22,64.5H61.59Zm-4.93-9.72A.8.8,0,0,1,54,50h-.66a7.63,7.63,0,0,0,.53-1.7,3.22,3.22,0,0,0,1-.4ZM54,46.56V43.8A1.61,1.61,0,0,1,54.6,46a1.64,1.64,0,0,1-.57.57Zm-16.19,0a1.61,1.61,0,0,1-.57-2.19,1.64,1.64,0,0,1,.57-.57Zm0-5.45V42a4.51,4.51,0,0,0-.79.32V39.46a8.89,8.89,0,0,1,17.77,0v2.89A5.48,5.48,0,0,0,54,42V41.1h-.79a8.87,8.87,0,0,1-6.32-2.62L46,37.56l-.92.92a8.86,8.86,0,0,1-6.32,2.62Zm1.65,5.65V42.68a10.39,10.39,0,0,0,6.45-2.89,10.34,10.34,0,0,0,6.44,2.89v4.08A6.48,6.48,0,0,1,51.53,50h-5.6v1.65h4.28a6.43,6.43,0,0,1-10.72-4.86Zm8.88,7.68h0l-2.43,2.43L43.5,54.51v-.07a7.66,7.66,0,0,0,4.87,0ZM26.26,49.12,30,52.8l-.86.85L25.41,50ZM40.41,68.17a3.94,3.94,0,0,1-2.83,1.19,3.83,3.83,0,0,1-2.83-1.19L23.83,57.27a3.9,3.9,0,0,1-1.18-2.83,3.8,3.8,0,0,1,1.18-2.82l.46-.46L28,54.84h0a2.45,2.45,0,0,0,0,3.41L33.76,64a2.4,2.4,0,0,0,1.71.72,2.67,2.67,0,0,0,1.72-.66l.06-.06L41,67.71Zm1.71-1.51L38.44,63l1.05-1,3.68,3.68Zm.53-3.81-3.16-3.09L36,62.92a.76.76,0,0,1-1.07,0l0,0-1.77-1.78.59-1.7a4,4,0,0,1,3.09-2.7l5.66-1.05,3.49,3.48,3.48-3.48,5.66,1.05a4,4,0,0,1,3.09,2.7l1.19,3.48ZM68.57,21H57.25a2.47,2.47,0,0,0-2.43,2.43v6.44a2.47,2.47,0,0,0,2.43,2.43h2.17l-.85,4.86L66.4,32.3h2.17A2.47,2.47,0,0,0,71,29.87V23.43A2.47,2.47,0,0,0,68.57,21Zm.79,8.87a.81.81,0,0,1-.79.79H65.93L60.8,33.88l.53-3.22H57.25a.81.81,0,0,1-.79-.79V23.43a.81.81,0,0,1,.79-.79H68.57a.75.75,0,0,1,.78.73.13.13,0,0,1,0,.06ZM58,25.86h9.67V24.22H58Zm0,3.22h6.45V27.44H58Zm8.09,0h1.65V27.44H66.13ZM28.57,41l-.86-1.38L25.54,41a21,21,0,0,1,20.39-15.9,22.4,22.4,0,0,1,6.25.92l.47-1.51a23.15,23.15,0,0,0-6.72-1,22.53,22.53,0,0,0-22,17.34l-1.52-2.56L21,39.13l2.83,4.73ZM63,40.71l1.38.85,1.45-2.36A21.64,21.64,0,0,1,67,46a21.08,21.08,0,0,1-4.67,13.2l1.25,1A22.85,22.85,0,0,0,68.63,46a21.87,21.87,0,0,0-1.18-7.17l2.37,1.45.85-1.38L65.93,36Z"/></g></g></g></svg>