<svg id="Layer_1" data-name="Layer 1" xmlns="http://www.w3.org/2000/svg" viewBox="0 0 92 92"><defs><style>.cls-1{opacity:0.2;}.cls-2{fill:#fff;}.cls-3{fill:none;stroke:#e23333;stroke-width:2px;}.cls-4{fill:#e23333;}</style></defs><title>icon</title><g id="Rectangle_67" data-name="Rectangle 67" class="cls-1"><path class="cls-2" d="M46,91h0A45,45,0,0,1,1,46H1A45,45,0,0,1,46,1h0A45,45,0,0,1,91,46h0A45,45,0,0,1,46,91Z"/><path class="cls-3" d="M46,90h0A44,44,0,0,1,2,46H2A44,44,0,0,1,46,2h0A44,44,0,0,1,90,46h0A44,44,0,0,1,46,90Z"/></g><g id="Group_53" data-name="Group 53"><g id="Group_52" data-name="Group 52"><g id="Group_51" data-name="Group 51"><path id="Path_82" data-name="Path 82" class="cls-4" d="M58.5,24.36H51v-2.5a.87.87,0,0,0-.86-.85h-20a.87.87,0,0,0-.85.85v2.5H21.85a.82.82,0,0,0-.85.78h0v45a.88.88,0,0,0,.85.86H58.5a.86.86,0,0,0,.85-.86v-45a.82.82,0,0,0-.84-.79ZM31,22.65H49.35V24.3H31ZM31,26H49.35v3.35H42.51a2.48,2.48,0,0,0-3.16-1.51,2.51,2.51,0,0,0-1.51,1.51H31ZM57.64,69.36h-35V26h6.65v4.14a.88.88,0,0,0,.85.86H38.5a.86.86,0,0,0,.85-.86.86.86,0,0,1,1.72,0h0a.86.86,0,0,0,.85.86h8.36a.88.88,0,0,0,.85-.86V26h6.65V69.36Zm-28.28-30A3.36,3.36,0,1,0,26,36a3.35,3.35,0,0,0,3.36,3.35Zm0-5A1.65,1.65,0,1,1,27.71,36a1.6,1.6,0,0,1,1.53-1.65h.12Zm0,13.29a3.33,3.33,0,1,0-.06,0h.06Zm0-5a1.65,1.65,0,1,1-1.65,1.65,1.63,1.63,0,0,1,1.61-1.65h0ZM41,34.36a.88.88,0,0,0,.85.86H53.5a.86.86,0,0,0,.85-.86.85.85,0,0,0-.85-.85H41.85A.87.87,0,0,0,41,34.36Zm-5.86.79H38.5a.86.86,0,0,0,0-1.71H35.14a.86.86,0,0,0,0,1.71ZM53.5,36.86H46.85a.86.86,0,0,0-.85.86.85.85,0,0,0,.85.85H53.5a.85.85,0,0,0,.85-.85.83.83,0,0,0-.8-.86ZM35.14,38.51H43.5a.86.86,0,0,0,.85-.86.85.85,0,0,0-.85-.85H35.14a.87.87,0,0,0-.85.85A.92.92,0,0,0,35.14,38.51ZM53.5,41.86H50.14a.86.86,0,0,0-.85.86.85.85,0,0,0,.85.85H53.5a.85.85,0,0,0,.85-.85.83.83,0,0,0-.8-.86ZM35.14,43.51H46.79a.86.86,0,0,0,.85-.86.85.85,0,0,0-.85-.85H35.14a.87.87,0,0,0-.85.85A.92.92,0,0,0,35.14,43.51ZM53.5,45.15H44.35a.86.86,0,0,0-.85.86.85.85,0,0,0,.85.85H53.5a.85.85,0,0,0,.85-.85A.86.86,0,0,0,53.5,45.15ZM35.14,46.86H41a.86.86,0,0,0,0-1.71H35.14a.88.88,0,0,0-.85.86A.91.91,0,0,0,35.14,46.86Zm32.5-22.43h0a3.36,3.36,0,1,0-6.71-.16V64.36h0a.42.42,0,0,0,.07.27v.06h0l2.43,4.8v.66a.86.86,0,1,0,1.71,0v-.66l2.44-4.8h0v-.06c0-.07.06-.2.06-.27h0V26.21a2.49,2.49,0,0,1,1.65,2.37v7.5a.86.86,0,0,0,1.71,0V28.51A4.15,4.15,0,0,0,67.64,24.43Zm-3.29,43-1.18-2.3h2.3ZM66,63.51H62.64V40.15H66Zm0-25H62.64V26H66ZM62.64,24.36a1.65,1.65,0,0,1,3.29,0ZM42.91,52.06l-.66.66a9.17,9.17,0,1,0-1.32,12.9.86.86,0,0,1,.27-.2,9,9,0,0,0,1.11-1.12L43,65a1,1,0,0,0,.59.26H46V63.57H43.83l-.66-.65a9,9,0,0,0,0-8.75l.66-.6H46V51.93H43.5a.63.63,0,0,0-.59.13ZM42,61.67l-1.25-1.25L39.55,61.6l1.52,1.51a3,3,0,0,1-.47.53l-4.27-4.28h6.25A7.35,7.35,0,0,1,42,61.67Zm-7.64-4a.88.88,0,0,0-.85.86.73.73,0,0,0,.26.59l5.59,5.59A7.48,7.48,0,1,1,41.07,54l-1.52,1.51,1.19,1.19L42,55.42a9,9,0,0,1,.65,2.3l-8.28-.07ZM51,49.36a3.36,3.36,0,1,0,3.35,3.36h0a3.33,3.33,0,0,0-3.29-3.36Zm0,5a1.65,1.65,0,1,1,1.64-1.64A1.66,1.66,0,0,1,51,54.36ZM51,61a3.36,3.36,0,1,0,3.35,3.35h0A3.36,3.36,0,0,0,51,61Zm0,5a1.65,1.65,0,1,1,0-3.29A1.65,1.65,0,0,1,51,66Z"/></g></g></g></svg>