<svg id="Layer_1" data-name="Layer 1" xmlns="http://www.w3.org/2000/svg" viewBox="0 0 92 92"><defs><style>.cls-1{opacity:0.2;}.cls-2,.cls-3{fill:none;}.cls-3{stroke:#e23333;stroke-width:2px;}.cls-4{fill:#e23333;}</style></defs><title>icon</title><g id="Group_193" data-name="Group 193"><g id="Rectangle_71" data-name="Rectangle 71" class="cls-1"><path class="cls-2" d="M46,1h0A45,45,0,0,1,91,46h0A45,45,0,0,1,46,91h0A45,45,0,0,1,1,46H1A45,45,0,0,1,46,1Z"/><path class="cls-3" d="M46,2h0A44,44,0,0,1,90,46h0A44,44,0,0,1,46,90h0A44,44,0,0,1,2,46H2A44,44,0,0,1,46,2Z"/></g><g id="Group_56" data-name="Group 56"><g id="Group_55" data-name="Group 55"><g id="Group_54" data-name="Group 54"><path id="Path_83" data-name="Path 83" class="cls-4" d="M26.78,39.2a.74.74,0,0,0,.46.2.78.78,0,0,0,.53-.2.8.8,0,0,0,0-1.05L26,36.38l1.78-1.78a.74.74,0,0,0-1.05-1.05l-2.3,2.3a.78.78,0,0,0,0,1Zm5.46,0a.8.8,0,0,0,1,0l2.3-2.3a.8.8,0,0,0,0-1l-2.3-2.3a.74.74,0,0,0-1,0,.73.73,0,0,0,0,1.05L34,36.37l-1.78,1.78A.79.79,0,0,0,32.24,39.2Zm-3.36.2a.42.42,0,0,0,.27.07A.73.73,0,0,0,29.8,39l1.77-4.6a.71.71,0,0,0-1.31-.53l-1.77,4.6A.79.79,0,0,0,28.88,39.4ZM25.4,43.73h4.93a.72.72,0,0,0,.75-.69.73.73,0,0,0-.7-.75h-5a.72.72,0,0,0-.75.69.73.73,0,0,0,.7.75Zm16.23-1.44H33a.72.72,0,0,0-.75.69.73.73,0,0,0,.7.75H41.7a.72.72,0,0,0,.72-.72.83.83,0,0,0-.79-.72ZM25.4,46.82h2.1a.72.72,0,1,0,.05-1.44H25.4a.72.72,0,0,0-.75.69.73.73,0,0,0,.7.75ZM39,45.31a.73.73,0,0,0-.75.7.72.72,0,0,0,.7.74h1.3a.72.72,0,0,0,.75-.69.73.73,0,0,0-.7-.75H39Zm-2,.79a.72.72,0,0,0-.72-.72H30.07A.72.72,0,1,0,30,46.82h6.3A.72.72,0,0,0,37,46.1Zm4.8,0a.72.72,0,0,0,.72.72h2.37a.72.72,0,0,0,0-1.44H42.55a.65.65,0,0,0-.72.58.33.33,0,0,0,0,.14ZM37.89,37h2.5a.72.72,0,0,0,0-1.44h-2.5a.74.74,0,0,0-.73.72.7.7,0,0,0,.66.73h.07Zm5.32,0H58.58a.72.72,0,0,0,0-1.44H43.21a.72.72,0,0,0,0,1.44Zm13.07,1.78H50a.72.72,0,0,0,0,1.44h6.24a.72.72,0,0,0,0-1.44Zm-8.6,0H45.51a.72.72,0,0,0,0,1.44h2.16a.72.72,0,0,0,0-1.44Zm-9.79,1.44h5.25a.72.72,0,0,0,0-1.44H37.89a.74.74,0,0,0-.73.72.7.7,0,0,0,.66.73ZM36.31,48.4H31.38a.73.73,0,0,0-.75.7.72.72,0,0,0,.7.74h5a.72.72,0,0,0,.72-.72.68.68,0,0,0-.65-.72Zm-7.16,0H25.4a.73.73,0,0,0-.75.7.72.72,0,0,0,.7.74h3.86a.73.73,0,0,0,.73-.72A.79.79,0,0,0,29.15,48.4Zm16.1,0H38.81a.73.73,0,0,0-.75.7.71.71,0,0,0,.69.74h6.49a.72.72,0,1,0,.06-1.44h0ZM54,44.65H50.43a.72.72,0,0,0-.74.7.71.71,0,0,0,.69.75H54A.73.73,0,0,0,54,44.65h0Zm6,1.45h5a.73.73,0,0,0,.75-.7.72.72,0,0,0-.7-.74H60a.72.72,0,0,0,0,1.44ZM57.6,44.65H56.48a.73.73,0,1,0,0,1.45H57.6a.73.73,0,0,0,0-1.45ZM54,52.6H50.43a.73.73,0,0,0,0,1.45H54a.73.73,0,0,0,.75-.7A.71.71,0,0,0,54,52.6Zm11,0H60A.73.73,0,0,0,60,54.05h5a.73.73,0,0,0,0-1.45Zm-7.42,0H56.48a.73.73,0,1,0,0,1.45H57.6a.73.73,0,0,0,0-1.45Zm-7.16,9.46H54A.72.72,0,0,0,54,60.62H50.43a.72.72,0,0,0,0,1.44Zm9.59,0h5a.72.72,0,1,0,0-1.44H60A.72.72,0,1,0,60,62.06Zm-3.62,0h1.12a.72.72,0,1,0,0-1.44H56.41a.71.71,0,0,0-.69.75A.72.72,0,0,0,56.41,62.06ZM67.72,21H24.22A3.22,3.22,0,0,0,21,24.22V59.63a3.22,3.22,0,0,0,3.22,3.22H27a.72.72,0,0,0,.75-.69.73.73,0,0,0-.7-.75H24.22a1.76,1.76,0,0,1-1.77-1.76s0,0,0,0V56.87H49.06v1.25h-.6A1.46,1.46,0,0,0,47,59.57v1.84H31.38a.72.72,0,0,0-.75.69.73.73,0,0,0,.7.75h7.08v2.63H36.18a2.71,2.71,0,0,0-2.7,2.69v1.58A1.25,1.25,0,0,0,34.73,71H57.07a1.25,1.25,0,0,0,1.25-1.25h0V68.17a2.71,2.71,0,0,0-2.69-2.69H53.39v-.92H66.93a1.46,1.46,0,0,0,1.44-1.44v-.33a3.24,3.24,0,0,0,2.5-3.16l.07-35.41A3.23,3.23,0,0,0,67.72,21ZM48.53,55.1V51.62h18.4V55.1Zm2-5V48.6H65v1.51Zm14.32,6.43v1.52H50.57V56.54Zm-25,6.31h7.16v.27a1.46,1.46,0,0,0,1.45,1.44H52v.92H39.92Zm15.7,4.08a1.18,1.18,0,0,1,1.19,1.17h0v1.31H35V68.11a1.18,1.18,0,0,1,1.18-1.18H55.62Zm11.3-3.88H48.53V59.57h18.4Zm2.5-3.42a1.64,1.64,0,0,1-1,1.58V59.57a1.46,1.46,0,0,0-1.44-1.45h-.59V56.87h3l.06,2.76Zm0-4.27h-1V51.55a1.45,1.45,0,0,0-1.44-1.44h-.59V48.6h.59a1.46,1.46,0,0,0,1.44-1.44V43.6a1.45,1.45,0,0,0-1.44-1.44H62.79a.72.72,0,0,0,0,1.44h4.07v3.48H48.46V43.6h9.73a.72.72,0,0,0,.74-.7.71.71,0,0,0-.69-.74H48.53a1.45,1.45,0,0,0-1.45,1.44v3.55a1.46,1.46,0,0,0,1.45,1.45h.59v1.51h-.59a1.45,1.45,0,0,0-1.44,1.45v3.81H22.45V30.92h47Zm0-25.88H22.51V24.22a1.76,1.76,0,0,1,1.76-1.77H67.65a1.76,1.76,0,0,1,1.77,1.75v5.28Zm-43-5.65A2.17,2.17,0,1,0,28.56,26a2.17,2.17,0,0,0-2.17-2.16Zm0,2.82a.66.66,0,1,1,.66-.66A.66.66,0,0,1,26.39,26.65Zm5.45-2.82A2.17,2.17,0,1,0,34,26a2.14,2.14,0,0,0-2.12-2.16Zm0,2.82A.66.66,0,1,1,32.5,26h0a.62.62,0,0,1-.58.66Zm5.45-2.82A2.17,2.17,0,1,0,39.46,26h0a2.14,2.14,0,0,0-2.12-2.16Zm0,2.82A.66.66,0,1,1,38,26h0a.62.62,0,0,1-.58.66Z"/></g></g></g></g></svg>