<svg id="Layer_1" data-name="Layer 1" xmlns="http://www.w3.org/2000/svg" viewBox="0 0 92 92"><defs><style>.cls-1{opacity:0.2;}.cls-2,.cls-3{fill:none;}.cls-3{stroke:#e23333;stroke-width:2px;}.cls-4{fill:#e23333;}</style></defs><title>icon</title><g id="Group_194" data-name="Group 194"><g id="Rectangle_75" data-name="Rectangle 75" class="cls-1"><path class="cls-2" d="M46,1h0A45,45,0,0,1,91,46h0A45,45,0,0,1,46,91h0A45,45,0,0,1,1,46H1A45,45,0,0,1,46,1Z"/><path class="cls-3" d="M46,2h0A44,44,0,0,1,90,46h0A44,44,0,0,1,46,90h0A44,44,0,0,1,2,46H2A44,44,0,0,1,46,2Z"/></g><g id="Group_62" data-name="Group 62"><g id="Group_61" data-name="Group 61"><g id="Group_60" data-name="Group 60"><path id="Path_85" data-name="Path 85" class="cls-4" d="M42,41.1a.84.84,0,1,0,1.18,0,.84.84,0,0,0-1.18,0Zm11.7-10.51a4.1,4.1,0,0,0-5.78-.07l-.07.07a4.14,4.14,0,1,0,5.85,0Zm-1.18,4.67a2.46,2.46,0,1,1,0-3.48,2.42,2.42,0,0,1,0,3.42l-.06.06ZM52.91,44c.66-.59,1.32-1.18,1.91-1.77a27.82,27.82,0,0,0,6.37-10.52,37,37,0,0,0,2-9.92A.73.73,0,0,0,63,21.2a.81.81,0,0,0-.6-.2,37.42,37.42,0,0,0-9.92,2A27.12,27.12,0,0,0,42,29.41c-.59.59-1.18,1.25-1.78,1.9A6,6,0,0,0,34,31c-3.09,1.71-5.06,6.24-5.06,9.52a.85.85,0,0,0,.53.79.55.55,0,0,0,.33.07.8.8,0,0,0,.59-.27,5.05,5.05,0,0,1,4.34-1.44l.26.26a26,26,0,0,0-1.38,4,2.2,2.2,0,0,0,.13,1.45A8.48,8.48,0,0,0,31.5,47c-2.1,2.1-2.57,7.3-2.57,7.49a.86.86,0,0,0,.27.66,1,1,0,0,0,.59.26h.06c.2,0,5.39-.46,7.49-2.56a8.69,8.69,0,0,0,1.58-2.23,2.75,2.75,0,0,0,1.45.13,26.61,26.61,0,0,0,4-1.38l.27.26a5.28,5.28,0,0,1-1.45,4.34.83.83,0,0,0-.2.92.85.85,0,0,0,.79.52c3.28,0,7.82-2,9.53-5.06A6.27,6.27,0,0,0,52.91,44Zm8.61-21.29a40.62,40.62,0,0,1-1.45,7.23l-5.78-5.79A42.65,42.65,0,0,1,61.52,22.71Zm-30.68,16c.52-2.5,2-5.19,4-6.31a4.44,4.44,0,0,1,4.4.2,39,39,0,0,0-3.49,5.65A.71.71,0,0,0,35.3,38,7.25,7.25,0,0,0,30.84,38.74Zm5.39,12.81c-1.12,1.12-3.81,1.71-5.46,2,.27-1.71.86-4.33,2-5.45a5.86,5.86,0,0,1,2.1-1.38l2.76,2.76A5.47,5.47,0,0,1,36.23,51.55ZM40,49a.66.66,0,0,1-.72-.26l-1.64-1.65L35.51,45a1,1,0,0,1-.26-.72,19.4,19.4,0,0,1,1-3.15l6.83,6.83A21.68,21.68,0,0,1,40,49Zm-3-9.46A30.71,30.71,0,0,1,41.09,33a26.16,26.16,0,0,1,2.1-2.37,25.35,25.35,0,0,1,9.4-5.78l6.9,6.9a25.35,25.35,0,0,1-5.78,9.4,26.16,26.16,0,0,1-2.37,2.1,31.58,31.58,0,0,1-6.57,4.07Zm14.85,9.92c-1,2-3.81,3.48-6.3,4a6.75,6.75,0,0,0,.65-4.54.73.73,0,0,0-.26-.39,33.77,33.77,0,0,0,5.65-3.48A4.44,4.44,0,0,1,51.86,49.45ZM39.71,55.1l-2.3,2.37a.83.83,0,0,0,0,1.18.85.85,0,0,0,1.18,0l2.3-2.37a.83.83,0,0,0-1.18-1.18ZM26.9,46.89l2.36-2.37a.83.83,0,0,0,0-1.18.84.84,0,0,0-1.19,0l-2.3,2.36a.85.85,0,0,0,0,1.18h0a.76.76,0,0,0,1.07.06Zm7,9.33-5.59,5.65a.84.84,0,0,0,0,1.18.83.83,0,0,0,1.18,0h0L35,57.47a.84.84,0,0,0,0-1.18h0a.9.9,0,0,0-1.18-.06Zm-5.45,0a.84.84,0,0,0-1.18,0h0l-5.52,5.65a.83.83,0,0,0,1.18,1.18l5.58-5.58a1,1,0,0,0-.06-1.25Zm-6-.2L28,50.43a.83.83,0,0,0-1.18-1.18h0l-5.58,5.59A.83.83,0,1,0,22.43,56ZM45.56,37.56l-1.19,1.18a.84.84,0,0,0,1.19,1.18l1.11-1.18a.84.84,0,0,0,0-1.18h0a.75.75,0,0,0-1.06-.05A.12.12,0,0,0,45.56,37.56ZM64.81,57.79c-.2,0-.33.13-.33.4a.36.36,0,0,0,.33.39.37.37,0,0,0,.39-.36v0A.43.43,0,0,0,64.81,57.79Zm-6.57,6.38a.58.58,0,0,0-.59.59.59.59,0,0,0,.59.59.6.6,0,0,0,.59-.59h0a.58.58,0,0,0-.59-.59Zm12,2.69-4.8-4.4.07-.07a.49.49,0,0,0,.09-.69l-.09-.09a.6.6,0,0,0-.79,0l-.07.06-.26-.2,1.9-1.9A3.69,3.69,0,0,0,70.85,57,3.79,3.79,0,0,0,71,55.89a4.09,4.09,0,0,0-.2-1.25.59.59,0,0,0-.39-.39.52.52,0,0,0-.53.13l-1.45,1.44h-.52l-.66-.72v-.59l1.45-1.45a.5.5,0,0,0,.13-.52.61.61,0,0,0-.4-.4,3.87,3.87,0,0,0-4.33,1.38,3.71,3.71,0,0,0-.59,3.09L61,59.11l-4.2-4.27v-.79a.57.57,0,0,0-.27-.46L54,52.08a.6.6,0,0,0-.72.07l-1,1.05a.59.59,0,0,0-.06.72l1.51,2.56a.52.52,0,0,0,.46.27H55L59.15,61l-2.44,2.43a4,4,0,0,0-3.08.59,3.79,3.79,0,0,0-1.58,3.09,4.13,4.13,0,0,0,.2,1.25.63.63,0,0,0,.39.39.52.52,0,0,0,.53-.13l1.44-1.45h.6l.72.73v.52l-1.45,1.45a.5.5,0,0,0-.13.52.61.61,0,0,0,.4.4,3.86,3.86,0,0,0,4.33-1.38,3.69,3.69,0,0,0,.59-3.09l1.91-1.9.2.2-.07.06a.49.49,0,0,0-.09.69.43.43,0,0,0,.09.1.6.6,0,0,0,.79,0l.07-.07,4.4,4.8h0a2.38,2.38,0,0,0,3.35,0,2.31,2.31,0,0,0,0-3.28.46.46,0,0,0-.07-.07ZM55.61,55.76h0a.49.49,0,0,0-.4-.13h-.72l-1.12-1.91.4-.39,1.9,1.11v.73a.64.64,0,0,0,.2.39l4.4,4.4-.2.2Zm3,9.92a.61.61,0,0,0-.14.59,2.72,2.72,0,0,1-1.77,3.43,2.41,2.41,0,0,1-.66.12l.79-.79a.55.55,0,0,0,.2-.39V67.58a.55.55,0,0,0-.2-.39l-1-1a.55.55,0,0,0-.39-.2H54.29a.55.55,0,0,0-.39.2l-.66.79a2.92,2.92,0,0,1,1.12-2,2.68,2.68,0,0,1,2.43-.4.58.58,0,0,0,.59-.13s5.92-5.91,7.1-7.16h0a.63.63,0,0,0,.13-.59,2.73,2.73,0,0,1,1.78-3.42,2.88,2.88,0,0,1,.65-.13l-.78.79a.48.48,0,0,0-.13.39V55.3a.79.79,0,0,0,.13.39l1,1.05a.56.56,0,0,0,.4.2h1a.45.45,0,0,0,.39-.2l.79-.78a2.68,2.68,0,0,1-2.69,2.5,4.16,4.16,0,0,1-.86-.13.63.63,0,0,0-.59.13Zm3.74-2.17,1.25-1.24.2.2-1.32,1.31Zm7.16,5.91a1.31,1.31,0,0,1-1.77,0l-4.47-4.86,1.38-1.38,4.86,4.47a1.2,1.2,0,0,1,.09,1.69A.34.34,0,0,1,69.47,69.42ZM63.36,58.78l-4.53,4.53a.6.6,0,0,0,0,.79.49.49,0,0,0,.69.1.47.47,0,0,0,.1-.1l4.53-4.53a.5.5,0,0,0,.1-.69l-.1-.1a.6.6,0,0,0-.79,0Zm2.17,5.85a.55.55,0,0,0-.39-.2h0a.57.57,0,0,0-.4.2.6.6,0,0,0,0,.78L68,68.63a.48.48,0,0,0,.69.1.47.47,0,0,0,.1-.1.6.6,0,0,0,0-.78Z"/></g></g></g></g></svg>